HIERARCHY
ROOT Hips
{
	OFFSET 0.00 0.00 0.00
	CHANNELS 6 Xposition Yposition Zposition Zrotation Xrotation Yrotation
	JOINT LeftUpLeg
	{
		OFFSET 0.0000 -0.0000 -4.0865
		CHANNELS 3 Zrotation Xrotation Yrotation
		JOINT LeftLowLeg
		{
			OFFSET -0.0000 -19.8189 -3.4946
			CHANNELS 3 Zrotation Xrotation Yrotation
			JOINT LeftFoot
			{
				OFFSET -0.0000 -16.5094 -2.9110
				CHANNELS 3 Zrotation Xrotation Yrotation
				JOINT ltoes
				{
					OFFSET 6.0988 -3.4677 -0.6114
					CHANNELS 3 Zrotation Xrotation Yrotation
					End Site
					{
						OFFSET 4.0485 -0.0000 0.0000
					}
				}
			}
		}
	}
	JOINT RightUpLeg
	{
		OFFSET -0.0000 -0.0000 4.0865
		CHANNELS 3 Zrotation Xrotation Yrotation
		JOINT RightLowLeg
		{
			OFFSET 0.0000 -19.7514 3.4827
			CHANNELS 3 Zrotation Xrotation Yrotation
			JOINT RightFoot
			{
				OFFSET 0.0000 -16.6186 2.9303
				CHANNELS 3 Zrotation Xrotation Yrotation
				JOINT rtoes
				{
					OFFSET 6.0607 -3.4460 0.6076
					CHANNELS 3 Zrotation Xrotation Yrotation
					End Site
					{
						OFFSET 4.0107 -0.0000 -0.0000
					}
				}
			}
		}
	}
	JOINT upperback
	{
		OFFSET 0.0000 0.0000 0.0000
		CHANNELS 3 Zrotation Xrotation Yrotation
		JOINT Chest
		{
			OFFSET -3.6284 10.3090 -0.1315
			CHANNELS 3 Zrotation Xrotation Yrotation
			JOINT Neck
			{
				OFFSET 0.4806 11.5884 -0.7464
				CHANNELS 3 Zrotation Xrotation Yrotation
				JOINT Head
				{
					OFFSET 0.0599 3.9212 0.0045
					CHANNELS 3 Zrotation Xrotation Yrotation
					End Site
					{
						OFFSET 0.7148 3.5292 0.4213
					}
				}
			}
			JOINT Chest
			{
				OFFSET 0.4806 11.5884 -0.7464
				CHANNELS 3 Zrotation Xrotation Yrotation
				JOINT LeftUpArm
				{
					OFFSET 0.0000 -0.0000 -6.9157
					CHANNELS 3 Zrotation Xrotation Yrotation
					JOINT LeftLowArm
					{
						OFFSET -1.1952 -0.0000 -13.6616
						CHANNELS 3 Zrotation Xrotation Yrotation
						JOINT LeftHand
						{
							OFFSET 1.1153 -0.0000 -12.7479
							CHANNELS 3 Zrotation Xrotation Yrotation
							JOINT lfingers
							{
								OFFSET 0.1227 -0.0000 -1.4030
								CHANNELS 3 Zrotation Xrotation Yrotation
								End Site
								{
									OFFSET 0.1372 -0.0000 -1.5686
								}
							}
						}
					}
				}
			}
			JOINT Chest
			{
				OFFSET 0.4806 11.5884 -0.7464
				CHANNELS 3 Zrotation Xrotation Yrotation
				JOINT RightUpArm
				{
					OFFSET -0.0000 0.0000 7.0066
					CHANNELS 3 Zrotation Xrotation Yrotation
					JOINT RightLowArm
					{
						OFFSET -1.1183 -0.0000 12.7827
						CHANNELS 3 Zrotation Xrotation Yrotation
						JOINT RightHand
						{
							OFFSET 1.1229 -0.0000 12.8350
							CHANNELS 3 Zrotation Xrotation Yrotation
							JOINT rfingers
							{
								OFFSET 0.1204 -0.0000 1.3757
								CHANNELS 3 Zrotation Xrotation Yrotation
								End Site
								{
									OFFSET 0.1346 -0.0000 1.5381
								}
							}
						}
					}
				}
			}
		}
	}
}
MOTION
Frames: 19
Frame Time: 0.033333
-63.0486 37.0221 59.7671 2.7591 3.8914 48.0746 21.9454 -2.6222 -0.6500 -88.9231 -9.9660 10.1541 -13.3557 -0.4082 2.9000 27.5621 -1.1484 -4.6799 34.2656 8.0593 -15.6219 -60.8778 5.2136 -8.8609 16.6577 -2.6662 -8.0012 -12.3341 0.2333 -2.1586 -29.8462 0.7890 -0.7086 -2.1241 5.2882 -0.1505 -21.9566 2.9440 24.9664 16.5891 -24.1488 28.2904 -0.4265 -7.1486 -3.4233 -5.2025 -70.1800 -5.3563 -43.2912 54.1010 -35.6913 0.8857 -2.5299 24.3017 -2.4953 -26.4561 -0.5866 -0.2049 1.2831 9.0750 6.8718 63.8713 -19.7826 -14.4890 -23.5003 52.0548 0.2445 -9.0216 -3.4412 -2.4953 26.4561 0.5866 
-62.5158 36.8863 59.5647 2.6154 3.8623 48.3043 24.9906 -3.2076 -2.1513 -91.5561 -10.4301 10.1521 -15.6700 -0.4472 2.9842 21.4520 -0.7006 -3.6974 34.0309 8.6227 -15.3612 -61.7451 5.3488 -8.9352 18.0050 -3.1489 -8.6993 -12.3259 0.2330 -2.1572 -29.7439 0.5112 -0.4779 -2.6317 6.3666 0.2195 -21.7349 1.4918 24.4533 17.1400 -24.2175 28.2816 -0.4206 -7.5770 -3.1867 -5.1560 -70.8872 -5.0943 -41.9076 52.5214 -36.4839 0.7041 -2.0130 24.2839 -2.4953 -26.4561 -0.5866 -0.0243 0.1514 9.1098 7.1422 64.2978 -18.7391 -14.2406 -23.9044 52.9403 0.3716 -8.8829 -2.5947 -2.4953 26.4561 0.5866 
-62.0127 36.7425 59.3753 2.9828 4.1275 48.5514 27.7010 -3.6889 -3.7126 -93.9285 -10.8473 10.1318 -17.0755 -0.3105 2.5267 11.5569 -0.2049 -2.0244 33.1882 9.3985 -15.1843 -62.3920 5.4503 -8.9893 19.4392 -3.7270 -9.4873 -12.2722 0.2309 -2.1479 -29.9774 0.6009 -0.1442 -3.6966 6.4532 0.6402 -20.9964 1.2428 24.2532 17.4130 -24.4003 28.3021 -0.3916 -7.6428 -2.9421 -3.6047 -70.9136 -3.9240 -42.5892 52.0967 -35.6431 1.0770 -3.2004 23.6103 -2.4953 -26.4561 -0.5866 0.0128 -0.0777 9.3865 8.4781 64.4341 -18.3200 -13.8985 -24.1600 53.8436 0.3922 -9.1290 -2.5295 -2.4953 26.4561 0.5866 
-61.5345 36.6506 59.1783 3.4345 4.3937 48.6816 30.2347 -3.9718 -4.9637 -95.2620 -11.0810 10.1126 -17.9006 -0.0220 1.6480 -1.1225 -0.0019 0.1979 32.2744 10.0982 -15.1600 -62.9006 5.5306 -9.0310 20.4140 -4.2123 -10.2006 -12.1165 0.2251 -2.1211 -30.2936 0.9414 0.4150 -4.3033 5.5594 1.1311 -20.6425 1.8003 24.5122 16.7458 -24.0586 28.2136 -0.3837 -7.4804 -2.9445 -1.4879 -70.3782 -1.7108 -42.9436 51.7980 -35.1767 1.4747 -4.4965 23.1790 -2.4953 -26.4561 -0.5866 -0.0853 0.5127 9.4501 9.4145 64.6501 -17.5737 -13.0498 -23.5361 54.8674 0.2573 -9.4777 -3.4378 -2.4953 26.4561 0.5866 
-61.0996 36.5908 58.9608 3.7258 4.6754 48.7877 32.9663 -4.4009 -5.8402 -95.7220 -11.1615 10.1048 -18.8668 0.3045 0.7555 -7.3436 -0.0829 1.2914 31.4833 10.4735 -15.1047 -63.5595 5.6352 -9.0840 20.9237 -4.4926 -10.6113 -11.8314 0.2147 -2.0718 -30.5559 1.1753 0.9824 -4.7931 4.6630 1.6355 -19.7468 1.8309 24.4670 16.0181 -23.1140 27.8382 -0.3620 -7.2613 -2.8615 -0.4668 -69.8359 -0.4841 -42.9941 51.2027 -34.8936 1.3218 -4.0439 23.1182 -2.4953 -26.4561 -0.5866 -0.1462 0.9288 8.9464 8.9958 64.9662 -15.0614 -13.0419 -23.5312 54.8782 0.2328 -9.0018 -3.5123 -2.4953 26.4561 0.5866 
-60.7426 36.5295 58.7568 3.7994 4.8476 48.9490 35.9652 -5.1517 -6.5636 -95.3853 -11.1026 10.1106 -19.2390 0.3443 0.6912 -6.2098 -0.0593 1.0929 30.9442 10.6865 -15.0537 -64.1518 5.7296 -9.1306 21.4724 -4.7856 -10.9984 -11.6996 0.2100 -2.0491 -30.6452 1.4175 1.4557 -5.0974 3.9571 2.0294 -19.0986 1.6005 24.2690 16.1171 -22.5205 27.6349 -0.3504 -7.0105 -2.8687 0.7426 -69.4747 1.0519 -43.3586 50.5845 -34.2881 1.3022 -3.9802 23.1334 -2.4953 -26.4561 -0.5866 -0.1455 0.9657 8.5700 8.5775 65.2513 -12.7114 -14.0058 -24.7462 54.2102 0.3988 -8.8199 -2.4009 -2.4953 26.4561 0.5866 
-60.4264 36.4760 58.5263 3.8464 5.0398 49.0075 38.7878 -5.7606 -6.8311 -94.0380 -10.8665 10.1304 -19.5316 0.2881 0.8963 -4.7949 -0.0354 0.8445 30.3732 10.6758 -15.1463 -64.6357 5.8072 -9.1680 22.0041 -4.9652 -11.0662 -11.1182 0.1897 -1.9485 -30.7061 1.6390 1.9745 -5.0894 3.6543 2.4642 -18.8981 0.9794 24.0161 16.1418 -22.1918 27.4607 -0.2850 -6.6095 -2.4748 1.1838 -70.0147 1.5575 -44.9827 50.2551 -32.5733 1.4327 -4.4126 23.0081 -2.4953 -26.4561 -0.5866 -0.1128 0.7605 8.4390 7.4775 65.1765 -10.3604 -15.6534 -26.8780 53.2091 0.3971 -9.6816 -2.6400 -2.4953 26.4561 0.5866 
-60.0772 36.4440 58.2848 3.9733 5.2506 48.7796 41.1564 -5.8807 -6.6194 -91.9381 -10.4974 10.1500 -18.8199 0.1791 1.1256 -4.0147 -0.0248 0.7073 29.5768 10.8497 -15.1055 -64.9656 5.8602 -9.1931 22.6023 -5.0972 -10.9492 -10.7096 0.1760 -1.8778 -30.7496 1.5002 2.3930 -4.7114 3.6285 2.8755 -19.1639 0.7824 23.9977 16.0327 -22.9873 27.6125 -0.2250 -6.2096 -2.0796 1.9799 -70.5132 2.8842 -45.9064 49.6722 -31.4498 1.2277 -3.7520 23.1338 -2.4953 -26.4561 -0.5866 -0.1022 0.6556 8.8633 6.7778 64.9661 -9.0909 -16.9839 -28.7475 52.5827 0.0929 -9.0086 -4.4066 -2.4953 26.4561 0.5866 
-59.7513 36.4366 58.0108 4.1852 5.7207 48.9967 42.8810 -6.3778 -6.6181 -89.1737 -10.0102 10.1548 -18.0348 0.0414 1.4614 -3.6302 -0.0203 0.6397 28.5297 10.5314 -15.6359 -65.2812 5.9111 -9.2168 23.1447 -5.1600 -10.6998 -10.2264 0.1605 -1.7939 -31.0369 1.5561 2.5475 -4.4701 3.4613 2.9981 -19.3943 0.5778 24.1740 15.8969 -23.4103 27.8777 -0.2562 -6.3792 -2.3042 4.2957 -69.9836 6.0300 -46.0579 49.2628 -31.1382 1.0740 -3.1146 24.0369 -2.4953 -26.4561 -0.5866 -0.1295 0.7967 9.2337 5.5839 64.5450 -7.1740 -16.3580 -28.0597 53.0362 -0.1531 -7.8076 -6.1267 -2.4953 26.4561 0.5866 
-59.4408 36.4448 57.7031 4.4150 6.2560 49.0886 43.8619 -6.7870 -6.5777 -85.7192 -9.4009 10.1273 -17.7255 0.0871 1.2857 -2.9915 -0.0138 0.5273 27.4085 10.1555 -16.0780 -65.6246 5.9666 -9.2423 23.5409 -5.1669 -10.4266 -9.6816 0.1439 -1.6993 -31.3265 1.5524 2.7180 -4.0487 3.4028 3.1420 -20.0640 0.0408 24.2605 16.0559 -23.0317 28.0006 -0.3090 -6.5121 -2.7225 7.0873 -69.4846 9.8675 -46.8640 49.1590 -30.3305 1.1251 -3.2948 23.8653 -2.4953 -26.4561 -0.5866 -0.1078 0.6294 9.7205 4.5543 64.2649 -5.8469 -15.3894 -26.8252 53.6194 -0.2170 -7.0961 -6.7561 -2.4953 26.4561 0.5866 
-59.1445 36.4443 57.3673 4.8018 6.8741 48.9390 44.3310 -6.9375 -6.2989 -82.0866 -8.7622 10.0582 -17.2038 0.0334 1.4069 -3.3889 -0.0177 0.5972 26.0761 9.9488 -16.1671 -66.0019 6.0278 -9.2699 24.1277 -5.2561 -10.2267 -9.5233 0.1393 -1.6717 -31.7841 1.4431 2.8483 -3.3301 3.7306 3.2680 -21.0313 -0.9336 24.2508 15.9982 -22.4640 28.0195 -0.3744 -7.0273 -3.0574 10.3698 -68.7423 14.2175 -48.1199 49.4919 -29.2828 1.5475 -4.8992 22.5532 -2.4953 -26.4561 -0.5866 -0.0214 0.1141 10.6275 4.1824 64.0334 -5.8437 -15.1726 -26.6506 53.8440 -0.1689 -7.5012 -6.2936 -2.4953 26.4561 0.5866 
-58.8832 36.4786 56.9845 5.0889 7.2609 48.4860 44.7013 -6.8016 -5.6420 -78.3550 -8.1110 9.9447 -15.6525 -0.2236 2.1851 -4.6703 -0.0335 0.8226 24.8632 9.7183 -16.1473 -66.1492 6.0517 -9.2806 24.6792 -5.2179 -9.7585 -9.7842 0.1470 -1.7171 -31.8190 1.4625 3.1793 -3.3201 3.6446 3.5763 -21.2231 -1.6043 24.2281 15.4643 -21.9827 27.9102 -0.3813 -7.6246 -2.8710 12.6706 -67.9679 16.5607 -48.6416 49.4524 -28.7799 1.8010 -5.9619 21.8426 -2.4953 -26.4561 -0.5866 0.0563 -0.2882 11.0501 4.0359 63.8170 -5.4317 -15.4375 -27.0552 53.7369 0.0138 -7.5239 -4.8946 -2.4953 26.4561 0.5866 
-58.6299 36.5319 56.6057 5.3871 7.4064 48.0662 44.9298 -6.5667 -5.2882 -74.4613 -7.4400 9.7810 -14.7870 -0.3890 2.7846 -3.5661 -0.0196 0.6284 23.7325 9.6548 -16.1792 -66.0617 6.0375 -9.2742 24.7545 -4.9505 -9.0864 -9.4283 0.1365 -1.6552 -31.5504 1.7123 3.6002 -3.9465 3.2653 3.9393 -20.9230 -2.2060 24.2419 15.5895 -21.5565 28.0077 -0.2295 -8.1170 -1.6247 12.5095 -67.6695 15.2260 -48.2265 48.5136 -28.7889 1.6287 -5.3011 22.1060 -2.4953 -26.4561 -0.5866 0.0646 -0.3308 11.0535 4.0023 63.4768 -4.4221 -16.6498 -28.4429 52.8751 0.0259 -7.3435 -4.7976 -2.4953 26.4561 0.5866 
-58.3652 36.6077 56.1780 5.8627 7.6798 47.5615 44.5170 -6.1265 -5.0274 -70.5181 -6.7727 9.5688 -14.6453 -0.4188 2.9002 -2.7914 -0.0120 0.4920 22.2757 9.6243 -16.0484 -65.9046 6.0120 -9.2628 24.3780 -4.6216 -8.5499 -7.8545 0.0948 -1.3808 -31.4947 2.0649 4.0475 -4.3542 2.4148 4.2647 -20.5249 -2.1839 24.4127 15.2818 -21.6011 28.1267 -0.1873 -7.9395 -1.3556 13.6036 -67.2922 15.9466 -47.5024 47.9284 -29.2213 1.3799 -4.3188 22.7377 -2.4953 -26.4561 -0.5866 0.0003 -0.0017 10.7553 2.9480 63.3465 -2.4138 -17.1724 -28.8142 52.3333 -0.0282 -7.2351 -5.2240 -2.4953 26.4561 0.5866 
-58.0530 36.4473 55.2996 6.0946 11.5655 45.9237 41.3941 -7.2398 -2.6799 -67.8483 -6.3295 9.3992 -13.3788 -0.2773 2.3510 -2.7613 -0.0117 0.4867 18.5944 6.1937 -14.2446 -68.3258 6.4082 -9.4310 25.1807 -4.0920 -6.8681 -5.3600 0.0442 -0.9438 -33.0680 -0.3036 3.8641 -4.7722 1.2114 4.7579 -21.0883 -1.6747 24.6324 14.7339 -21.4397 28.0599 -0.2963 -7.4860 -2.2733 15.2128 -66.4260 18.4671 -47.1735 48.1681 -29.6295 1.4546 -4.6216 22.4922 -2.4953 -26.4561 -0.5866 -0.0464 0.2554 10.2949 0.9971 63.8218 -0.3158 -16.2496 -27.5702 52.7997 -0.2407 -6.7333 -7.0519 -2.4953 26.4561 0.5866 
-57.7827 36.5751 54.8206 6.2816 11.5867 45.4940 40.6376 -6.8134 -2.9487 -63.9879 -5.7035 9.1178 -14.3905 -0.0402 1.4247 -1.2471 -0.0024 0.2199 17.4679 6.0251 -13.9845 -68.1099 6.3726 -9.4167 24.6400 -3.8352 -6.5573 -4.1750 0.0268 -0.7355 -32.6912 -0.3305 4.0354 -4.1805 1.4041 4.8833 -21.7744 -2.2198 24.7202 14.5704 -21.4226 28.2105 -0.2967 -7.4395 -2.2903 16.7093 -66.3697 20.5241 -47.5768 48.5263 -29.4004 1.5923 -5.2457 21.9121 -2.4953 -26.4561 -0.5866 0.0693 -0.3599 10.9031 0.3770 64.0213 -0.6767 -16.3082 -27.8481 52.9400 -0.1279 -6.6837 -6.0985 -2.4953 26.4561 0.5866 
-57.5345 36.6822 54.2965 6.4093 11.4745 45.2279 40.0790 -6.4709 -3.4071 -60.6870 -5.1840 8.8443 -16.8942 0.1587 0.9562 1.2004 -0.0022 -0.2116 16.4769 5.8219 -13.9362 -68.0565 6.3638 -9.4132 24.4943 -3.6815 -6.2720 -2.9538 0.0134 -0.5206 -32.0374 -0.1669 4.1128 -4.6960 1.5149 4.9190 -21.0348 -2.7748 24.8606 14.2583 -21.4528 28.4356 -0.2122 -7.5661 -1.6116 17.5807 -66.5770 20.5782 -47.7589 48.5000 -29.2193 1.2995 -4.1781 22.2942 -2.4953 -26.4561 -0.5866 0.1287 -0.6660 10.9373 -0.0647 63.8428 -0.0385 -16.7808 -28.3191 52.5570 0.0823 -7.0207 -4.3269 -2.4953 26.4561 0.5866 
-57.2788 36.7671 53.7381 6.9013 11.4141 44.7749 39.3954 -5.8551 -3.8673 -58.1209 -4.7915 8.6113 -19.8016 0.3881 0.6480 3.6810 -0.0208 -0.6486 15.1031 5.9578 -13.6306 -67.9982 6.3542 -9.4093 23.6442 -3.4461 -6.1332 -0.0102 0.0000 -0.0018 -31.8266 0.2296 4.3126 -4.7187 0.9077 4.9653 -20.8953 -2.3307 25.3040 13.5795 -21.5314 28.6479 -0.1896 -7.2373 -1.5044 18.9319 -66.4063 21.6916 -47.4072 48.7614 -29.6561 1.2921 -4.1681 22.2409 -2.4953 -26.4561 -0.5866 0.0805 -0.4317 10.5610 -1.1370 64.0662 1.2207 -17.2389 -28.7182 52.1468 0.0414 -6.4582 -4.6316 -2.4953 26.4561 0.5866 
-57.0495 36.8415 53.1593 7.1679 11.8707 44.4961 38.4333 -5.6551 -3.6006 -55.6965 -4.4305 8.3753 -22.3446 0.7547 0.0974 7.0991 -0.0775 -1.2487 13.5941 5.4040 -13.4647 -67.9953 6.3537 -9.4091 23.0324 -3.2716 -6.0062 2.2527 0.0078 0.3971 -32.2500 0.0234 4.2588 -3.6440 0.6025 4.9151 -21.9448 -1.9683 25.6510 13.8943 -21.9559 29.0369 -0.2472 -7.3790 -1.9243 19.4078 -65.6212 22.9672 -46.8614 49.1108 -30.3133 1.4139 -4.5900 22.1411 -2.4953 -26.4561 -0.5866 0.0129 -0.0698 10.4910 -2.1524 64.2193 1.2542 -16.8216 -28.3598 52.5244 -0.0484 -6.1760 -5.4497 -2.4953 26.4561 0.5866 
